<svg width="59" height="48" viewBox="0 0 59 48" fill="none" xmlns="http://www.w3.org/2000/svg">
<path d="M3.27729 39.7127C3.0001 39.7127 2.91694 39.5363 3.09082 39.3209L27.8831 8.78187C27.9139 8.73256 27.9578 8.69278 28.0099 8.66696C28.062 8.64115 28.1202 8.63032 28.1781 8.63567C28.236 8.64103 28.2913 8.66237 28.3378 8.69731C28.3842 8.73224 28.4201 8.7794 28.4413 8.83353L34.1993 19.455C34.2633 19.5883 34.2898 19.7364 34.276 19.8835C34.2622 20.0307 34.2087 20.1713 34.1212 20.2904L28.9554 26.6431C28.9246 26.6924 28.8807 26.7322 28.8286 26.758C28.7765 26.7838 28.7182 26.7947 28.6604 26.7893C28.6025 26.784 28.5472 26.7626 28.5007 26.7277C28.4543 26.6927 28.4184 26.6456 28.3972 26.5915L27.0314 24.0715C27.0102 24.0174 26.9743 23.9702 26.9279 23.9353C26.8814 23.9004 26.8261 23.879 26.7682 23.8737C26.7103 23.8683 26.6521 23.8792 26.6 23.905C26.5479 23.9308 26.504 23.9706 26.4732 24.0199L14.0462 39.3158C13.8342 39.549 13.5393 39.6897 13.2247 39.7077L3.27729 39.7127Z" fill="url(#paint0_linear_19_57)"/>
<path d="M29.734 7.17923C29.608 6.93479 29.7214 6.73572 29.9986 6.73572H38.671C38.8212 6.74444 38.9672 6.78932 39.0964 6.86653C39.2256 6.94375 39.3342 7.05102 39.4131 7.17923L56.8144 39.2756C56.9467 39.5187 56.8283 39.7191 56.5511 39.7191H47.8863C47.7357 39.7105 47.5893 39.6657 47.4597 39.5885C47.33 39.5113 47.221 39.404 47.1417 39.2756L29.734 7.17923Z" fill="#F4FEFF"/>
<path d="M34.8129 38.4969C34.7493 38.3638 34.7229 38.2159 34.7366 38.069C34.7504 37.9221 34.8038 37.7817 34.891 37.6628L40.0569 31.3088C40.0877 31.2595 40.1316 31.2197 40.1837 31.1939C40.2358 31.1681 40.294 31.1572 40.3519 31.1626C40.4098 31.1679 40.4651 31.1893 40.5115 31.2242C40.558 31.2592 40.5938 31.3063 40.6151 31.3604L44.8989 39.2692C45.0312 39.5137 44.9128 39.7127 44.6356 39.7127H35.9759C35.8253 39.7044 35.6791 39.6597 35.5496 39.5825C35.4201 39.5052 35.3113 39.3978 35.2325 39.2692L34.8129 38.4969Z" fill="#1DBDF0"/>
<path d="M20.6194 39.3158C20.4456 39.53 20.5287 39.7064 20.8059 39.7064H30.7521C31.0667 39.6884 31.3619 39.5483 31.5748 39.3158L56.0648 9.1586C56.1489 9.05497 56.2707 8.98894 56.4034 8.975C56.5362 8.96106 56.669 9.00036 56.7729 9.08426L57.1256 9.37154C57.3411 9.54541 57.5288 9.46225 57.5427 9.18506L57.9963 0.391772C58.0051 0.33277 57.9982 0.272494 57.9765 0.216947C57.9547 0.161401 57.9188 0.112522 57.8723 0.0751787C57.8258 0.0378357 57.7703 0.0133318 57.7114 0.00410719C57.6524 -0.00511737 57.5921 0.00125942 57.5364 0.0226025L49.1312 2.34976C48.8641 2.42409 48.8212 2.62695 49.0367 2.80208L49.3895 3.0881C49.4409 3.12985 49.4835 3.18133 49.515 3.23959C49.5465 3.29785 49.5662 3.36175 49.573 3.42763C49.5798 3.49351 49.5736 3.56008 49.5546 3.62354C49.5356 3.68699 49.5044 3.74609 49.4625 3.79746L20.6194 39.3158Z" fill="#F4FEFF"/>
<path d="M2.16126 42H2.83729L5 48H3.85206L2.5 43.9022L1.1465 48H0L2.16126 42ZM1.03793 45.9488H4.01274V47.0382H1.03793V45.9488Z" fill="#F4FEFF"/>
<path d="M7.24321 47.9222C7.01045 47.8674 6.78384 47.7839 6.56755 47.6734C6.36392 47.5695 6.17316 47.4368 6 47.2784L6.4608 46.3631C6.66868 46.5532 6.90589 46.6993 7.16078 46.7944C7.42484 46.8949 7.70202 46.9458 7.98103 46.9451C8.24265 46.961 8.50325 46.8975 8.73506 46.7612C8.81858 46.7101 8.88795 46.6345 8.93561 46.5425C8.98326 46.4505 9.00738 46.3457 9.00532 46.2395C9.0084 46.1716 8.99935 46.1037 8.97871 46.0398C8.95806 45.9759 8.92622 45.9171 8.88506 45.867C8.79835 45.7705 8.69087 45.7004 8.5729 45.6635C8.41093 45.6129 8.24617 45.5741 8.07967 45.5474C8.07298 45.546 8.0661 45.546 8.0594 45.5474H8.03913L7.95941 45.5353C7.66095 45.4876 7.36696 45.4099 7.08105 45.3031C6.84277 45.205 6.63556 45.0309 6.48512 44.8025C6.30751 44.51 6.22196 44.16 6.24189 43.8074C6.23257 43.4645 6.31185 43.1258 6.47026 42.8318C6.62995 42.5553 6.8614 42.3396 7.13375 42.2136C7.46782 42.0628 7.82617 41.9904 8.18643 42.001C8.38144 42.0017 8.57581 42.026 8.76614 42.0734C9.16527 42.1737 9.54362 42.3579 9.88097 42.6162L9.46071 43.5556C9.26407 43.4032 9.05001 43.281 8.82425 43.1922C8.61984 43.1086 8.40411 43.0648 8.18643 43.0625C7.94171 43.0473 7.69778 43.1051 7.47969 43.2299C7.40282 43.275 7.33865 43.343 7.29429 43.4263C7.24992 43.5096 7.2271 43.6049 7.22834 43.7018C7.22558 43.7756 7.23612 43.8493 7.25933 43.9184C7.28254 43.9876 7.31796 44.0508 7.36348 44.1044C7.45379 44.2049 7.56462 44.2794 7.68644 44.3215C7.86413 44.3823 8.04455 44.4326 8.22696 44.4723H8.25669H8.28507L8.32696 44.4829L8.36885 44.4934C8.65487 44.5507 8.93507 44.6396 9.20532 44.7588C9.4326 44.868 9.62751 45.0468 9.76746 45.2745C9.93122 45.5526 10.0121 45.8814 9.99854 46.2138C10.0073 46.5539 9.92551 46.8892 9.76341 47.1773C9.59475 47.4542 9.35497 47.6676 9.07559 47.7895C8.73103 47.9377 8.36372 48.009 7.99454 47.9991C7.74235 48.0035 7.49047 47.9777 7.24321 47.9222Z" fill="#F4FEFF"/>
<path d="M12.5579 47.9161C12.2662 47.8612 11.9823 47.7777 11.7112 47.6671C11.456 47.5632 11.217 47.4303 11 47.2718L11.5775 46.3559C11.8395 46.5465 12.1385 46.6928 12.4597 46.7874C12.7907 46.8879 13.138 46.9389 13.4876 46.9383C13.8155 46.9542 14.142 46.8906 14.4325 46.7542C14.5372 46.7031 14.6241 46.6275 14.6838 46.5354C14.7436 46.4433 14.7738 46.3384 14.7712 46.2321C14.7751 46.1642 14.7637 46.0963 14.7379 46.0323C14.712 45.9683 14.6721 45.9095 14.6205 45.8594C14.5118 45.7628 14.3771 45.6926 14.2293 45.6557C14.0263 45.605 13.8199 45.5662 13.6112 45.5395C13.6028 45.5381 13.5942 45.5381 13.5858 45.5395H13.5604L13.4605 45.5274C13.087 45.4799 12.7191 45.4022 12.3615 45.2951C12.0662 45.1991 11.8085 45.0287 11.6198 44.8047C11.3972 44.5119 11.29 44.1616 11.315 43.8087C11.3033 43.4656 11.4026 43.1267 11.6012 42.8325C11.8013 42.5557 12.0913 42.3399 12.4326 42.2138C12.8513 42.0628 13.3003 41.9904 13.7518 42.001C13.9962 42.0017 14.2397 42.026 14.4783 42.0735C14.9784 42.1738 15.4526 42.3582 15.8753 42.6167L15.3487 43.5568C15.1024 43.404 14.8341 43.2817 14.5511 43.1931C14.2949 43.1095 14.0246 43.0656 13.7518 43.0633C13.4451 43.0481 13.1394 43.1059 12.8661 43.2308C12.7698 43.276 12.6894 43.344 12.6338 43.4273C12.5782 43.5107 12.5496 43.6062 12.5512 43.7031C12.5477 43.777 12.5609 43.8507 12.59 43.9199C12.6191 43.9891 12.6635 44.0524 12.7205 44.106C12.8337 44.2066 12.9726 44.2811 13.1252 44.3233C13.3479 44.3841 13.574 44.4345 13.8026 44.4742H13.8398H13.8754L13.9279 44.4848L13.9804 44.4953C14.3388 44.5527 14.6899 44.6416 15.0286 44.7609C15.3057 44.8696 15.5437 45.0446 15.7161 45.2664C15.9198 45.5473 16.0182 45.8786 15.9972 46.2125C16.0083 46.5528 15.9057 46.8884 15.7026 47.1767C15.4912 47.4538 15.1908 47.6673 14.8406 47.7894C14.4089 47.9377 13.9486 48.009 13.4859 47.9991C13.1742 48.0007 12.8631 47.9729 12.5579 47.9161Z" fill="#F4FEFF"/>
<path d="M18 48H17V42H18V48Z" fill="#F4FEFF"/>
<path d="M21.2447 47.9161C21.0117 47.861 20.7848 47.7775 20.5682 47.6671C20.3645 47.5628 20.1736 47.43 20 47.2718L20.4613 46.3559C20.6707 46.5465 20.9096 46.6928 21.1662 46.7874C21.4306 46.8879 21.7081 46.9389 21.9874 46.9383C22.2498 46.9542 22.5112 46.8906 22.7437 46.7542C22.8273 46.703 22.8966 46.6273 22.9443 46.5353C22.992 46.4432 23.0162 46.3384 23.0143 46.2321C23.0177 46.1643 23.0088 46.0964 22.9884 46.0324C22.968 45.9684 22.9363 45.9096 22.8953 45.8594C22.8085 45.7628 22.7008 45.6926 22.5827 45.6557C22.4201 45.6051 22.2547 45.5663 22.0876 45.5395H22.0686H22.0483L21.9685 45.5275C21.6697 45.4799 21.3753 45.4021 21.0891 45.2951C20.8531 45.1991 20.6473 45.0287 20.4965 44.8047C20.3187 44.5119 20.233 44.1616 20.253 43.8088C20.2443 43.4657 20.3236 43.127 20.4816 42.8325C20.6418 42.5554 20.874 42.3395 21.1473 42.2138C21.4817 42.0627 21.8405 41.9903 22.2012 42.001C22.396 42.0019 22.5901 42.0262 22.7803 42.0735C22.9789 42.1231 23.1728 42.1938 23.3593 42.2847C23.5487 42.376 23.7299 42.4872 23.9005 42.6167L23.4784 43.5568C23.2818 43.4037 23.0674 43.2814 22.8411 43.1931C22.6369 43.1096 22.4214 43.0657 22.2039 43.0633C21.9585 43.0482 21.7138 43.106 21.495 43.2308C21.4182 43.276 21.3541 43.3441 21.3099 43.4275C21.2657 43.5109 21.2432 43.6063 21.2447 43.7031C21.2419 43.777 21.2525 43.8507 21.2757 43.9199C21.299 43.9891 21.3344 44.0524 21.38 44.106C21.4706 44.2062 21.5815 44.2808 21.7033 44.3233C21.8813 44.384 22.0619 44.4344 22.2445 44.4742H22.2729H22.3027L22.3433 44.4848L22.3852 44.4953C22.6716 44.5525 22.9522 44.6414 23.2227 44.7609C23.4443 44.8692 23.6345 45.0443 23.772 45.2664C23.9351 45.5472 24.0142 45.8784 23.9979 46.2125C24.007 46.5531 23.9245 46.8888 23.7611 47.1767C23.5928 47.4544 23.3526 47.6681 23.0725 47.7894C22.7275 47.9377 22.3598 48.009 21.9902 47.9991C21.7397 48.0008 21.4899 47.973 21.2447 47.9161Z" fill="#F4FEFF"/>
<path d="M25 42H29V43.0894H25V42ZM26.4846 42.4917H27.5126V48H26.486L26.4846 42.4917Z" fill="#F4FEFF"/>
<path d="M34.8057 44.3049L35.9317 42.0031H36.9269L35.27 45.3913L33.9965 48H33L34.8057 44.3049ZM34.7954 45.5402L34.6993 45.3468L33.0423 42H34.0375L35.1597 44.2711L35.2879 44.5396L37 47.9923H36.0035L34.7954 45.5402Z" fill="#F4FEFF"/>
<path d="M39 42.0004H40.053V48H39V42.0004ZM39.4799 44.5831H41.2693C41.3859 44.5857 41.5009 44.5538 41.6017 44.4909C41.6985 44.4288 41.7766 44.3381 41.8266 44.2297C41.8826 44.1091 41.9106 43.9757 41.9083 43.841C41.9105 43.7052 41.8835 43.5706 41.8295 43.4477C41.781 43.3379 41.7032 43.2459 41.606 43.1835C41.5042 43.119 41.3875 43.0865 41.2693 43.0897H39.4799V42.0004H41.2421C41.5621 41.9933 41.8788 42.072 42.1633 42.2294C42.4232 42.3763 42.6377 42.601 42.7808 42.8762C42.9248 43.1741 43 43.5047 43 43.8403C43 44.1758 42.9248 44.5065 42.7808 44.8043C42.6375 45.0782 42.4229 45.3013 42.1633 45.4465C41.8783 45.6022 41.5618 45.6798 41.2421 45.6724H39.4799V44.5831Z" fill="#F4FEFF"/>
<path d="M44 42H45.1254V48H44V42ZM44.4067 42H48V43.0894H44.4067V42ZM44.4067 44.4768H47.5474V45.5662H44.4067V44.4768ZM44.4067 46.9106H48V48H44.4067V46.9106Z" fill="#F4FEFF"/>
<path d="M50 42.0004H50.9959V48H50V42.0004ZM50.3992 44.4988H52.2382C52.3339 44.5013 52.4281 44.4714 52.5088 44.4128C52.5887 44.352 52.6512 44.2661 52.6888 44.1656C52.7334 44.0483 52.7565 43.9218 52.7564 43.794C52.7584 43.6664 52.7367 43.5398 52.6928 43.4224C52.6552 43.3219 52.5927 43.236 52.5129 43.1751C52.4323 43.1163 52.338 43.0864 52.2422 43.0891H50.3992V42.0004H52.318C52.5864 41.9937 52.8514 42.0707 53.0839 42.2231C53.3048 42.3717 53.483 42.5898 53.5968 42.8511C53.7162 43.147 53.778 43.4686 53.778 43.794C53.778 44.1194 53.7162 44.441 53.5968 44.7368C53.4825 44.9982 53.3039 45.2164 53.0825 45.3649C52.8503 45.5167 52.586 45.5937 52.318 45.5876H50.3992V44.4988ZM51.5101 45.4018L52.5751 45.2129L54 48H52.793L51.5101 45.4018Z" fill="#F4FEFF"/>
<path d="M55 42H59V43.0894H55V42ZM56.4866 42.4917H57.5134V48H56.4866V42.4917Z" fill="#F4FEFF"/>
<defs>
<linearGradient id="paint0_linear_19_57" x1="3.0001" y1="24.1736" x2="34.2787" y2="24.1736" gradientUnits="userSpaceOnUse">
<stop stop-color="#0092E6"/>
<stop offset="1" stop-color="#46FAFE"/>
</linearGradient>
</defs>
</svg>
