<svg width="675" height="662" viewBox="0 0 675 662" fill="none" xmlns="http://www.w3.org/2000/svg">
<path fill-rule="evenodd" clip-rule="evenodd" d="M235.732 0H440.717V147.834L572.508 71.7445L675 249.266L542.485 325.774L675 402.282L572.508 579.804L440.717 503.714V661.075H235.732V502.878L102.492 579.804L0 402.282L132.516 325.774L3.48145e-05 249.266L102.492 71.7444L235.732 148.67V0Z" fill="url(#paint0_linear_48_11)"/>
<path fill-rule="evenodd" clip-rule="evenodd" d="M444.651 252.296C449.654 257.3 449.654 265.411 444.651 270.415L310.771 404.295C308.368 406.698 305.109 408.048 301.711 408.048C298.314 408.048 295.055 406.698 292.652 404.295L231.798 343.44C226.794 338.437 226.794 330.325 231.798 325.322C236.801 320.319 244.913 320.319 249.916 325.322L301.711 377.118L426.533 252.296C431.536 247.293 439.648 247.293 444.651 252.296Z" fill="white"/>
<defs>
<linearGradient id="paint0_linear_48_11" x1="623.754" y1="491.043" x2="51.2462" y2="160.505" gradientUnits="userSpaceOnUse">
<stop stop-color="#0CA3EA"/>
<stop offset="1" stop-color="#7DD3FC"/>
</linearGradient>
</defs>
</svg>
